<svg width="66" height="67" viewBox="0 0 66 67" fill="none" xmlns="http://www.w3.org/2000/svg">
<path d="M3.27344 15.7882C3.27344 11.874 3.27344 9.91693 3.90186 8.37316C4.73977 6.3148 6.34693 4.67943 8.36981 3.82683C9.88696 3.18738 11.8103 3.18738 15.657 3.18738H50.7436C54.5903 3.18738 56.5136 3.18738 58.0308 3.82683C60.0537 4.67943 61.6608 6.3148 62.4987 8.37316C63.1272 9.91693 63.1272 11.874 63.1272 15.7882V50.4403C63.1272 54.3545 63.1272 56.3115 62.4987 57.8553C61.6608 59.9137 60.0537 61.549 58.0308 62.4016C56.5136 63.0411 54.5903 63.0411 50.7436 63.0411H15.657C11.8103 63.0411 9.88696 63.0411 8.36981 62.4016C6.34693 61.549 4.73977 59.9137 3.90186 57.8553C3.27344 56.3115 3.27344 54.3545 3.27344 50.4403V15.7882Z" fill="black"/>
<path d="M3.27344 15.7882C3.27344 11.874 3.27344 9.91693 3.90186 8.37316C4.73977 6.3148 6.34693 4.67943 8.36981 3.82683C9.88696 3.18738 11.8103 3.18738 15.657 3.18738H50.7436C54.5903 3.18738 56.5136 3.18738 58.0308 3.82683C60.0537 4.67943 61.6608 6.3148 62.4987 8.37316C63.1272 9.91693 63.1272 11.874 63.1272 15.7882V50.4403C63.1272 54.3545 63.1272 56.3115 62.4987 57.8553C61.6608 59.9137 60.0537 61.549 58.0308 62.4016C56.5136 63.0411 54.5903 63.0411 50.7436 63.0411H15.657C11.8103 63.0411 9.88696 63.0411 8.36981 62.4016C6.34693 61.549 4.73977 59.9137 3.90186 57.8553C3.27344 56.3115 3.27344 54.3545 3.27344 50.4403V15.7882Z" fill="url(#paint0_linear_1674_12165)" fill-opacity="0.9"/>
<mask id="mask0_1674_12165" style="mask-type:alpha" maskUnits="userSpaceOnUse" x="3" y="3" width="61" height="61">
<path d="M3.27734 15.7862C3.27734 11.8721 3.27734 9.91498 3.90577 8.37121C4.74367 6.31284 6.35084 4.67748 8.37371 3.82488C9.89087 3.18542 11.8142 3.18542 15.6609 3.18542H50.7475C54.5942 3.18542 56.5175 3.18542 58.0347 3.82488C60.0576 4.67748 61.6647 6.31284 62.5026 8.37121C63.1311 9.91498 63.1311 11.8721 63.1311 15.7862V50.4384C63.1311 54.3525 63.1311 56.3096 62.5026 57.8534C61.6647 59.9117 60.0576 61.5471 58.0347 62.3997C56.5175 63.0391 54.5942 63.0391 50.7475 63.0391H15.6609C11.8142 63.0391 9.89087 63.0391 8.37371 62.3997C6.35084 61.5471 4.74367 59.9117 3.90577 57.8534C3.27734 56.3096 3.27734 54.3525 3.27734 50.4384V15.7862Z" fill="#FF0032"/>
</mask>
<g mask="url(#mask0_1674_12165)">
<g filter="url(#filter0_f_1674_12165)">
<path d="M112.71 55.0533C102.305 61.5586 92.899 68.7925 84.9873 76.8307C60.639 101.569 42.564 141.206 29.5311 180.681C26.339 190.349 0.652423 187.436 0.65243 177.255L0.652543 7.73695C0.652546 3.2476 4.29186 -0.391724 8.78121 -0.391724L103.432 -0.391724C113.848 -0.391724 121.542 49.5312 112.71 55.0533Z" fill="url(#paint1_radial_1674_12165)"/>
</g>
</g>
<path d="M24.8847 27.502V38.656C24.8847 38.9043 24.6921 39.1064 24.4553 39.1064H21.682C21.4452 39.1064 21.2526 38.9043 21.2526 38.656V27.502C21.2526 27.2537 21.4452 27.0516 21.682 27.0516H24.4553C24.6921 27.0516 24.8847 27.2537 24.8847 27.502ZM20.5482 38.6013L17.3174 32.8049L20.3797 27.5788C20.5272 27.3557 20.3756 27.0516 20.1168 27.0516L16.7505 27.0579C16.6442 27.0579 16.5439 27.1137 16.4847 27.2063L14.1057 31.4455H12.7171V27.502C12.7171 27.2537 12.5244 27.0516 12.2876 27.0516H9.51537C9.27758 27.0516 9.08594 27.2537 9.08594 27.502V38.656C9.08594 38.9043 9.27858 39.1064 9.51537 39.1064H12.2886C12.5254 39.1064 12.7181 38.9043 12.7181 38.656V34.7293H14.4077L16.7726 38.9475C16.8308 39.0485 16.9352 39.1116 17.0475 39.1116H20.2753C20.5262 39.1116 20.6797 38.8244 20.5482 38.6013ZM56.9007 39.1064C57.1375 39.1064 57.3301 38.9043 57.3301 38.656V27.502C57.3301 27.2537 57.1375 27.0516 56.9007 27.0516H54.2277C53.9909 27.0516 53.7983 27.2537 53.7983 27.502L53.8154 33.2079L48.9631 27.0579H45.8809C45.6441 27.0579 45.4514 27.26 45.4514 27.5083V38.6634C45.4514 38.9117 45.6431 39.1127 45.8798 39.1127H48.5468C48.7835 39.1127 48.9752 38.9117 48.9752 38.6634V32.9501L53.7782 39.1074L56.9007 39.1064ZM44.3397 27.5493V38.6097C44.3397 38.8844 44.127 39.1074 43.8651 39.1074H26.47C26.2081 39.1074 25.9954 38.8844 25.9954 38.6097V27.5493C25.9954 27.2747 26.2081 27.0516 26.47 27.0516H43.8661C44.127 27.0516 44.3397 27.2747 44.3397 27.5493ZM40.7296 30.2565C40.7296 30.1566 40.6423 30.0819 40.548 30.1019C38.6688 30.4954 32.0145 30.5554 29.7831 30.0987C29.6908 30.0798 29.6055 30.1545 29.6055 30.2544V35.7268C29.6055 35.8236 29.6868 35.8972 29.7791 35.8836C31.6292 35.5963 38.6627 35.6437 40.5611 35.8899C40.6514 35.9014 40.7296 35.8278 40.7296 35.7331V30.2565Z" fill="white"/>
<defs>
<filter id="filter0_f_1674_12165" x="-74.5378" y="-75.582" width="266.299" height="337.371" filterUnits="userSpaceOnUse" color-interpolation-filters="sRGB">
<feFlood flood-opacity="0" result="BackgroundImageFix"/>
<feBlend mode="normal" in="SourceGraphic" in2="BackgroundImageFix" result="shape"/>
<feGaussianBlur stdDeviation="37.5951" result="effect1_foregroundBlur_1674_12165"/>
</filter>
<linearGradient id="paint0_linear_1674_12165" x1="7.79364" y1="-27.7049" x2="98.2845" y2="39.3331" gradientUnits="userSpaceOnUse">
<stop offset="0.109668" stop-color="#72056D"/>
<stop offset="0.888275" stop-color="#E7061F"/>
</linearGradient>
<radialGradient id="paint1_radial_1674_12165" cx="0" cy="0" r="1" gradientUnits="userSpaceOnUse" gradientTransform="translate(94.3861 -113.939) rotate(90.6039) scale(192.813 175.134)">
<stop stop-color="#0085FF"/>
<stop offset="1" stop-color="white" stop-opacity="0"/>
</radialGradient>
</defs>
</svg>
