<svg width="67" height="66" viewBox="0 0 67 66" fill="none" xmlns="http://www.w3.org/2000/svg">
<path d="M4.00549 14.6962C4.00549 10.7821 4.00549 8.82501 4.63392 7.28124C5.47182 5.22288 7.07899 3.58751 9.10186 2.73491C10.619 2.09546 12.5424 2.09546 16.389 2.09546H51.4757C55.3223 2.09546 57.2457 2.09546 58.7628 2.73491C60.7857 3.58751 62.3929 5.22288 63.2308 7.28124C63.8592 8.82501 63.8592 10.7821 63.8592 14.6962V49.3484C63.8592 53.2626 63.8592 55.2196 63.2308 56.7634C62.3929 58.8218 60.7857 60.4571 58.7628 61.3097C57.2457 61.9492 55.3223 61.9492 51.4757 61.9492H16.389C12.5424 61.9492 10.619 61.9492 9.10186 61.3097C7.07899 60.4571 5.47182 58.8218 4.63392 56.7634C4.00549 55.2196 4.00549 53.2626 4.00549 49.3484V14.6962Z" fill="white"/>
<g clipPath="url(#clip0_1674_12172)">
<path d="M32.7341 34.8865L24.7403 26.8927C23.9583 26.1107 23.9583 24.8943 24.7403 24.1123L32.7341 16.1185C33.5161 15.3365 34.7326 15.3365 35.5146 16.1185L43.5084 24.1123C44.2904 24.8943 44.2904 26.1107 43.5084 26.8927L35.5146 34.8865C34.7326 35.6685 33.5161 35.6685 32.7341 34.8865Z" fill="url(#paint0_linear_1674_12172)"/>
<path d="M19.699 47.0525L11.7052 39.1456C10.9232 38.3636 10.9232 37.0603 11.7052 36.2783L19.699 28.2845C20.481 27.5025 21.6974 27.5025 22.4794 28.2845L30.4732 36.2783C31.2552 37.0603 31.2552 38.3636 30.4732 39.1456L22.4794 47.0525C21.6974 47.8345 20.481 47.8345 19.699 47.0525Z" fill="url(#paint1_linear_1674_12172)"/>
<path d="M45.7732 47.0525L37.7794 39.1456C36.9974 38.3636 36.9974 37.0603 37.7794 36.2783L45.7732 28.2845C46.5552 27.5025 47.7716 27.5025 48.5536 28.2845L56.5474 36.2783C57.3294 37.0603 57.3294 38.3636 56.5474 39.1456L48.5536 47.0525C47.7716 47.8345 46.5552 47.8345 45.7732 47.0525Z" fill="url(#paint2_linear_1674_12172)"/>
</g>
<defs>
<linearGradient id="paint0_linear_1674_12172" x1="34.1243" y1="35.4961" x2="34.1243" y2="15.509" gradientUnits="userSpaceOnUse">
<stop stop-color="#FF8745"/>
<stop offset="1" stop-color="#D13700"/>
</linearGradient>
<linearGradient id="paint1_linear_1674_12172" x1="21.0892" y1="47.7737" x2="21.0892" y2="27.7459" gradientUnits="userSpaceOnUse">
<stop stop-color="#4EB7E5"/>
<stop offset="1" stop-color="#328BCB"/>
</linearGradient>
<linearGradient id="paint2_linear_1674_12172" x1="47.1634" y1="47.6869" x2="47.1634" y2="27.6677" gradientUnits="userSpaceOnUse">
<stop stop-color="#9BDA32"/>
<stop offset="1" stop-color="#6EA70E"/>
</linearGradient>
<clipPath id="clip0_1674_12172">
<rect width="46.0512" height="32.149" fill="white" transform="translate(11.0991 15.5115)"/>
</clipPath>
</defs>
</svg>
