<svg width="67" height="67" viewBox="0 0 67 67" fill="none" xmlns="http://www.w3.org/2000/svg">
<path d="M3.2345 11.0099C3.2345 6.94915 6.58418 3.65723 10.7162 3.65723H55.6065C59.7385 3.65723 63.0882 6.94915 63.0882 11.0099V55.1263C63.0882 59.1871 59.7385 62.479 55.6065 62.479H10.7162C6.58418 62.479 3.2345 59.1871 3.2345 55.1263V11.0099Z" fill="#FF0032"/>
<path d="M38.1915 21.3547C43.1491 30.5514 27.7016 32.635 24.181 18.7682C24.0968 18.4605 23.7896 18.2698 23.4765 18.331L11.2806 20.7135C10.9871 20.7708 10.8059 21.0675 10.889 21.3547C13.1163 33.0661 23.9311 31.1605 24.8525 33.9283C25.5461 36.0119 10.6016 36.8022 12.326 47.364L12.3381 47.4293C12.3749 47.6276 12.5633 47.7602 12.7623 47.7279L23.5163 45.984C23.7038 45.9536 23.8381 45.7865 23.8274 45.5969L23.8218 45.4959C22.4566 32.2757 40.4907 34.7186 43.1491 47.364C43.1791 47.5922 43.3962 47.7472 43.6218 47.7016L56.3047 45.1358C56.5094 45.0944 56.6566 44.9145 56.6566 44.7056C56.6566 35.2934 42.4306 32.7787 42.4306 30.5514C42.4306 28.827 53.9982 29.6173 50.1902 19.5585C50.0836 19.2836 49.8008 19.1192 49.5092 19.1626L38.4737 20.8038C38.2157 20.8421 38.0719 21.1229 38.1915 21.3547Z" fill="white"/>
</svg>
