<svg width="67" height="67" viewBox="0 0 67 67" fill="none" xmlns="http://www.w3.org/2000/svg">
<path d="M3.14062 23.0515C3.14062 18.492 6.83682 14.7958 11.3963 14.7958H54.7387C59.2981 14.7958 62.9943 18.492 62.9943 23.0515V54.7842C62.9943 59.3437 59.2981 63.0399 54.7387 63.0399H11.3963C6.83682 63.0399 3.14062 59.3437 3.14062 54.7842V23.0515Z" fill="url(#paint0_linear_1674_12216)"/>
<path d="M3.14062 26.6637C3.14062 22.817 3.14062 20.8937 3.76905 19.3765C4.60695 17.3536 6.21412 15.7465 8.237 14.9086C9.75415 14.2802 11.6775 14.2802 15.5242 14.2802H50.6108C54.4575 14.2802 56.3808 14.2802 57.898 14.9086C59.9208 15.7465 61.528 17.3536 62.3659 19.3765C62.9943 20.8937 62.9943 22.817 62.9943 26.6637L62.9943 47.0449C62.9943 50.8916 62.9943 52.8149 62.3659 54.3321C61.528 56.3549 59.9208 57.9621 57.898 58.8C56.3808 59.4284 54.4575 59.4284 50.6108 59.4284H15.5242C11.6775 59.4284 9.75415 59.4284 8.237 58.8C6.21412 57.9621 4.60695 56.3549 3.76905 54.3321C3.14062 52.8149 3.14062 50.8916 3.14062 47.0449V26.6637Z" fill="#A6EAFF"/>
<path d="M3.14062 23.0515C3.14062 18.492 6.83682 14.7958 11.3963 14.7958H54.7387C59.2981 14.7958 62.9943 18.492 62.9943 23.0515V54.2683C62.9943 58.8278 59.2981 62.524 54.7387 62.524H11.3963C6.83682 62.524 3.14062 58.8278 3.14062 54.2683V23.0515Z" fill="url(#paint1_linear_1674_12216)"/>
<g filter="url(#filter0_f_1674_12216)">
<path d="M4.30469 27.6267C4.30469 23.8215 4.30469 21.9189 4.93311 20.4181C5.77102 18.4171 7.37818 16.8272 9.40106 15.9984C10.9182 15.3767 12.8415 15.3767 16.6882 15.3767H49.066C52.9126 15.3767 54.836 15.3767 56.3531 15.9984C58.376 16.8272 59.9832 18.4171 60.8211 20.4181C61.4495 21.9189 61.4495 23.8215 61.4495 27.6267V45.3081C61.4495 49.1133 61.4495 51.0159 60.8211 52.5167C59.9832 54.5177 58.376 56.1076 56.3531 56.9365C54.836 57.5581 52.9126 57.5581 49.066 57.5581H16.6882C12.8415 57.5581 10.9182 57.5581 9.40106 56.9365C7.37818 56.1076 5.77102 54.5177 4.93311 52.5167C4.30469 51.0159 4.30469 49.1133 4.30469 45.3081V27.6267Z" fill="url(#paint2_linear_1674_12216)"/>
</g>
<path d="M6.75391 5.63828C6.75391 4.28469 7.83618 3.18738 9.17124 3.18738H56.9666C58.3016 3.18738 59.3839 4.28469 59.3839 5.63828V43.3048C59.3839 44.6584 58.3016 45.7558 56.9666 45.7558H9.17124C7.83618 45.7558 6.75391 44.6584 6.75391 43.3048V5.63828Z" fill="url(#paint3_linear_1674_12216)"/>
<g clip-path="url(#clip0_1674_12216)" filter="url(#filter1_f_1674_12216)">
<g clip-path="url(#clip1_1674_12216)">
<path d="M58.5348 50.3849H7.32341C7.32341 50.3849 7.28409 32.5854 7.28409 24.5676L7.28407 8.10663C7.28407 8.05543 7.28262 8.01214 7.28079 7.96098C7.22161 6.30489 7.92275 4.91723 9.58096 4.86409C9.61015 4.86315 9.62571 4.86299 9.65491 4.86331C10.5697 4.8732 30.339 5.1103 32.8648 5.23659C50.8344 6.13507 53.5866 6.1531 58.6808 10.7492C59.9276 11.7349 60.2449 13.3482 59.9835 14.916C59.6501 16.9163 59.2993 19.5482 59.1013 22.9153C58.9105 26.1589 58.7009 29.1198 58.657 32.455L58.5348 50.3849Z" fill="url(#paint4_linear_1674_12216)"/>
</g>
</g>
<path fill-rule="evenodd" clip-rule="evenodd" d="M9.54343 4.32658C7.88261 4.32658 6.75391 5.55203 6.75391 7.13222V53.1407C6.75391 53.9477 7.57654 54.6019 8.5913 54.6019H57.5491C58.5638 54.6019 59.3865 53.9477 59.3865 53.1407V19.5473C59.3865 19.455 59.3372 19.3698 59.2572 19.3237L33.1462 4.29382L9.54343 4.32658Z" fill="url(#paint5_linear_1674_12216)"/>
<path d="M12.4336 26.2778C12.4336 26.7052 12.7617 27.0518 13.1663 27.0518L52.9793 27.0518C53.384 27.0518 53.712 26.7052 53.712 26.2778C53.712 25.8503 53.384 25.5038 52.9793 25.5038L13.1663 25.5038C12.7617 25.5038 12.4336 25.8503 12.4336 26.2778Z" fill="#C2D2E2"/>
<path d="M12.4336 35.0494C12.4336 35.4768 12.7617 35.8234 13.1663 35.8234L52.9793 35.8234C53.384 35.8234 53.712 35.4768 53.712 35.0494C53.712 34.6219 53.384 34.2754 52.9793 34.2754L13.1663 34.2754C12.7617 34.2754 12.4336 34.6219 12.4336 35.0494Z" fill="#C2D2E2"/>
<path d="M12.4336 43.8211C12.4336 44.2486 12.7617 44.5951 13.1663 44.5951L52.9793 44.5951C53.384 44.5951 53.712 44.2486 53.712 43.8211C53.712 43.3937 53.384 43.0471 52.9793 43.0471L13.1663 43.0472C12.7617 43.0472 12.4336 43.3937 12.4336 43.8211Z" fill="#C2D2E2"/>
<mask id="mask0_1674_12216" style="mask-type:alpha" maskUnits="userSpaceOnUse" x="6" y="4" width="54" height="53">
<path d="M6.75781 4.34851H32.9806C33.0267 4.34851 33.072 4.36088 33.1117 4.38432L59.3878 19.8924V56.7205H7.81173C7.22967 56.7205 6.75781 56.2487 6.75781 55.6666V4.34851Z" fill="#242939" fill-opacity="0.3"/>
</mask>
<g mask="url(#mask0_1674_12216)">
<g filter="url(#filter2_f_1674_12216)">
<path d="M33.0595 4.30847L60.8872 19.3222C60.8872 19.3222 55.987 18.2902 49.2045 20.3541C42.422 22.418 42.6756 25.0624 37.4144 23.6435C32.1532 22.2246 33.0595 4.30847 33.0595 4.30847Z" fill="url(#paint6_linear_1674_12216)"/>
</g>
</g>
<path d="M49.4338 17.7595C46.6472 17.7595 43.9314 18.199 41.3182 19.0316C39.9004 19.4833 38.3241 18.8061 37.8243 17.4046L33.1495 4.29382L59.3203 19.367C55.9289 17.912 53.1533 17.7595 49.4338 17.7595Z" fill="url(#paint7_linear_1674_12216)"/>
<path fill-rule="evenodd" clip-rule="evenodd" d="M29.2675 46.003C31.6544 47.2438 34.4962 47.2438 36.8831 46.003L58.5699 33.1203C61.3908 31.654 62.7903 29.1576 63.0022 26.5877V50.1753C63.0022 54.0219 63.0022 55.9453 62.3737 57.4624C61.9446 58.4984 61.3138 59.4253 60.5287 60.1957C59.7807 60.9297 58.8927 61.5216 57.9058 61.9304C56.3886 62.5588 54.4745 62.5233 50.6279 62.5233H15.532C11.6853 62.5233 9.76196 62.5588 8.24481 61.9304C6.22193 61.0925 4.61477 59.4853 3.77686 57.4624C3.14844 55.9453 3.14844 54.0219 3.14844 50.1753V26.5876C3.36027 29.1576 4.75977 31.654 7.58065 33.1203L29.2675 46.003Z" fill="url(#paint8_linear_1674_12216)"/>
<mask id="mask1_1674_12216" style="mask-type:alpha" maskUnits="userSpaceOnUse" x="3" y="12" width="61" height="52">
<path d="M3.14844 25.1156C3.14844 21.2689 3.14844 19.3456 3.77686 17.8284C4.61477 15.8056 6.22193 14.1984 8.24481 13.3605C9.76196 12.7321 11.6853 12.7321 15.532 12.7321H50.6186C54.4653 12.7321 56.3886 12.7321 57.9058 13.3605C59.9287 14.1984 61.5358 15.8056 62.3737 17.8284C63.0022 19.3456 63.0021 21.2689 63.0021 25.1156L63.0022 50.6566C63.0022 54.5033 63.0022 56.4266 62.3737 57.9438C61.5358 59.9666 59.9287 61.5738 57.9058 62.4117C56.3886 63.0401 54.4653 63.0401 50.6186 63.0401H15.532C11.6853 63.0401 9.76196 63.0401 8.24481 62.4117C6.22193 61.5738 4.61477 59.9666 3.77686 57.9438C3.14844 56.4266 3.14844 54.5033 3.14844 50.6566V25.1156Z" fill="#A6EAFF"/>
</mask>
<g mask="url(#mask1_1674_12216)">
<path fill-rule="evenodd" clip-rule="evenodd" d="M3.14703 26.277C3.35357 28.7676 4.71538 31.1871 7.47518 32.6131L29.3557 45.5181C31.6869 46.7227 34.4626 46.7227 36.7939 45.5181L58.6744 32.6131C61.4342 31.1872 62.796 28.7676 63.0025 26.277L63.5167 26.3196C63.2963 28.9778 61.8372 31.5597 58.9112 33.0715L37.0307 45.9765C34.5509 47.2578 31.5987 47.2578 29.1188 45.9765L7.23833 33.0715C4.3123 31.5597 2.85325 28.9778 2.63281 26.3196L3.14703 26.277Z" fill="url(#paint9_linear_1674_12216)"/>
</g>
<path fill-rule="evenodd" clip-rule="evenodd" d="M11.377 62.5236C9.9085 62.4666 8.85961 62.2958 8.00073 61.9085C7.04837 61.4791 6.19631 60.8476 5.48828 60.0617L28.89 43.3327C31.3935 41.5737 34.6113 41.5737 37.1149 43.3327L60.5889 60.1125C60.57 60.133 60.5511 60.1535 60.532 60.1739C59.8449 60.9078 59.0292 61.4997 58.1226 61.9085C57.2637 62.2958 56.215 62.4666 54.7466 62.5236H33.0618H11.377Z" fill="url(#paint10_linear_1674_12216)"/>
<path fill-rule="evenodd" clip-rule="evenodd" d="M5.93581 60.4985C5.80465 60.383 5.67722 60.2634 5.55371 60.1398L27.9743 43.4228C30.9936 41.1716 35.1331 41.1716 38.1524 43.4228L60.5732 60.1401C60.5545 60.1588 60.5358 60.1773 60.517 60.1958C60.4111 60.2997 60.3024 60.4007 60.191 60.4988L37.8439 43.8364C35.0077 41.7217 31.119 41.7217 28.2827 43.8364L5.93581 60.4985Z" fill="url(#paint11_linear_1674_12216)"/>
<defs>
<filter id="filter0_f_1674_12216" x="2.75675" y="13.8288" width="60.2407" height="45.2773" filterUnits="userSpaceOnUse" color-interpolation-filters="sRGB">
<feFlood flood-opacity="0" result="BackgroundImageFix"/>
<feBlend mode="normal" in="SourceGraphic" in2="BackgroundImageFix" result="shape"/>
<feGaussianBlur stdDeviation="0.77397" result="effect1_foregroundBlur_1674_12216"/>
</filter>
<filter id="filter1_f_1674_12216" x="3.663" y="1.63944" width="58.8217" height="45.6642" filterUnits="userSpaceOnUse" color-interpolation-filters="sRGB">
<feFlood flood-opacity="0" result="BackgroundImageFix"/>
<feBlend mode="normal" in="SourceGraphic" in2="BackgroundImageFix" result="shape"/>
<feGaussianBlur stdDeviation="0.77397" result="effect1_foregroundBlur_1674_12216"/>
</filter>
<filter id="filter2_f_1674_12216" x="28.8722" y="0.180629" width="36.1429" height="27.9918" filterUnits="userSpaceOnUse" color-interpolation-filters="sRGB">
<feFlood flood-opacity="0" result="BackgroundImageFix"/>
<feBlend mode="normal" in="SourceGraphic" in2="BackgroundImageFix" result="shape"/>
<feGaussianBlur stdDeviation="2.06392" result="effect1_foregroundBlur_1674_12216"/>
</filter>
<linearGradient id="paint0_linear_1674_12216" x1="33.0675" y1="10.6679" x2="33.0675" y2="61.105" gradientUnits="userSpaceOnUse">
<stop stop-color="#60D9FF"/>
<stop offset="0.692172" stop-color="#0748C6"/>
</linearGradient>
<linearGradient id="paint1_linear_1674_12216" x1="33.0675" y1="10.6679" x2="33.0675" y2="61.105" gradientUnits="userSpaceOnUse">
<stop stop-color="#60D9FF"/>
<stop offset="0.692172" stop-color="#0748C6"/>
</linearGradient>
<linearGradient id="paint2_linear_1674_12216" x1="62.7395" y1="28.8567" x2="3.20821" y2="28.5856" gradientUnits="userSpaceOnUse">
<stop offset="0.0104167" stop-color="#2C85ED" stop-opacity="0"/>
<stop offset="0.0769139" stop-color="#0810C6"/>
<stop offset="0.905523" stop-color="#0810C6"/>
<stop offset="1" stop-color="#2C85ED" stop-opacity="0"/>
</linearGradient>
<linearGradient id="paint3_linear_1674_12216" x1="33.0689" y1="3.18738" x2="33.0689" y2="45.7558" gradientUnits="userSpaceOnUse">
<stop offset="0.0264474" stop-color="white"/>
<stop offset="1" stop-color="#DFECF5"/>
</linearGradient>
<linearGradient id="paint4_linear_1674_12216" x1="51.226" y1="6.08863" x2="29.0903" y2="59.3766" gradientUnits="userSpaceOnUse">
<stop offset="0.0154159" stop-color="#C9DAE6" stop-opacity="0"/>
<stop offset="0.161468" stop-color="#7C9EB6" stop-opacity="0.49"/>
</linearGradient>
<linearGradient id="paint5_linear_1674_12216" x1="33.3761" y1="59.7639" x2="33.4438" y2="4.34789" gradientUnits="userSpaceOnUse">
<stop stop-color="#C9DAEF"/>
<stop offset="1" stop-color="#E8EFF5"/>
</linearGradient>
<linearGradient id="paint6_linear_1674_12216" x1="58.7684" y1="18.8602" x2="33.7394" y2="5.41225" gradientUnits="userSpaceOnUse">
<stop offset="0.00658703" stop-color="#346581"/>
<stop offset="1" stop-color="#346581" stop-opacity="0"/>
</linearGradient>
<linearGradient id="paint7_linear_1674_12216" x1="46.8758" y1="12.539" x2="41.3935" y2="19.9562" gradientUnits="userSpaceOnUse">
<stop stop-color="#E5EEF4"/>
<stop offset="0.419777" stop-color="white"/>
<stop offset="1" stop-color="#ECF8FF"/>
</linearGradient>
<linearGradient id="paint8_linear_1674_12216" x1="33.0753" y1="34.3089" x2="33.0753" y2="66.7993" gradientUnits="userSpaceOnUse">
<stop stop-color="#4EB4F9"/>
<stop offset="0.969279" stop-color="#3281F6"/>
</linearGradient>
<linearGradient id="paint9_linear_1674_12216" x1="33.0748" y1="26.277" x2="33.0748" y2="46.9375" gradientUnits="userSpaceOnUse">
<stop stop-color="#B0E0FB"/>
<stop offset="1" stop-color="#8BD6FF"/>
</linearGradient>
<linearGradient id="paint10_linear_1674_12216" x1="33.0025" y1="41.095" x2="33.0025" y2="59.4864" gradientUnits="userSpaceOnUse">
<stop stop-color="#4EB4F9"/>
<stop offset="0.969279" stop-color="#3281F6"/>
</linearGradient>
<linearGradient id="paint11_linear_1674_12216" x1="32.7907" y1="36.6532" x2="32.7907" y2="54.6369" gradientUnits="userSpaceOnUse">
<stop stop-color="#8CD6FF"/>
<stop offset="1" stop-color="#31ACF1"/>
</linearGradient>
<clipPath id="clip0_1674_12216">
<rect width="55.7259" height="42.5684" fill="white" transform="translate(5.21094 3.18738)"/>
</clipPath>
<clipPath id="clip1_1674_12216">
<rect width="57.9509" height="45.5217" fill="white" transform="translate(5.21094 4.86511)"/>
</clipPath>
</defs>
</svg>
