<svg width="349" height="351" viewBox="0 0 349 351" fill="none" xmlns="http://www.w3.org/2000/svg">
<circle opacity="0.9" cx="174.486" cy="176.916" r="173.486" stroke="url(#paint0_linear_646_3841)"/>
<path d="M169.603 0L170.699 2.29601L172.995 3.39219L170.699 4.48837L169.603 6.78438L168.507 4.48837L166.211 3.39219L168.507 2.29601L169.603 0Z" fill="#566582"/>
<path d="M4.8375 137.438L5.93368 139.734L8.22969 140.83L5.93368 141.926L4.8375 144.222L3.74132 141.926L1.44531 140.83L3.74132 139.734L4.8375 137.438Z" fill="#566582"/>
<path d="M258.767 325.648L259.863 327.944L262.159 329.041L259.863 330.137L258.767 332.433L257.671 330.137L255.375 329.041L257.671 327.944L258.767 325.648Z" fill="#566582"/>
<path d="M208.369 344.062L209.465 346.359L211.761 347.455L209.465 348.551L208.369 350.847L207.273 348.551L204.977 347.455L207.273 346.359L208.369 344.062Z" fill="#566582"/>
<defs>
<linearGradient id="paint0_linear_646_3841" x1="383.411" y1="-6049.48" x2="97.434" y2="-6049.48" gradientUnits="userSpaceOnUse">
<stop stop-color="#5C6C8C" stop-opacity="0"/>
<stop offset="0.350885" stop-color="#5C6C8C"/>
</linearGradient>
</defs>
</svg>
