<svg width="886" height="887" viewBox="0 0 886 887" fill="none" xmlns="http://www.w3.org/2000/svg">
<path d="M370.963 135.711L372.059 138.007L374.355 139.103L372.059 140.199L370.963 142.495L369.866 140.199L367.57 139.103L369.866 138.007L370.963 135.711Z" fill="#566582"/>
<path d="M674.314 229.727L675.41 232.023L677.706 233.119L675.41 234.215L674.314 236.511L673.218 234.215L670.922 233.119L673.218 232.023L674.314 229.727Z" fill="#566582"/>
<path d="M134.509 495.344L135.606 497.64L137.902 498.736L135.606 499.832L134.509 502.128L133.413 499.832L131.117 498.736L133.413 497.64L134.509 495.344Z" fill="#566582"/>
<circle opacity="0.7" cx="442.719" cy="443.502" r="313.051" transform="rotate(45 442.719 443.502)" stroke="url(#paint0_linear_646_3844)"/>
<defs>
<linearGradient id="paint0_linear_646_3844" x1="819.717" y1="-10791.8" x2="303.68" y2="-10791.8" gradientUnits="userSpaceOnUse">
<stop stop-color="#5C6C8C" stop-opacity="0"/>
<stop offset="0.350885" stop-color="#5C6C8C"/>
</linearGradient>
</defs>
</svg>
