<svg width="319" height="411" viewBox="0 0 319 411" fill="none" xmlns="http://www.w3.org/2000/svg">
<rect y="130" width="149.21" height="275" rx="4" fill="url(#paint0_linear_3993_63413)" fill-opacity="0.5"/>
<rect x="169.791" y="54" width="149.21" height="351" rx="4" fill="url(#paint1_linear_3993_63413)" fill-opacity="0.5"/>
<path d="M228.123 12.2763C230.863 12.2763 233.173 13.0926 235.055 14.7252C236.964 16.3302 237.919 18.5578 237.919 21.4079C237.919 24.2305 236.95 26.458 235.013 28.0907C233.076 29.7233 230.724 30.5396 227.957 30.5396C225.743 30.5396 223.765 30.0138 222.021 28.9623C220.278 27.8831 219.061 26.3335 218.369 24.3135L221.648 22.4456C222.035 23.8569 222.782 24.9361 223.889 25.6832C224.996 26.4027 226.352 26.7624 227.957 26.7624C229.783 26.7624 231.264 26.292 232.398 25.3512C233.533 24.4103 234.1 23.0959 234.1 21.4079C234.1 19.72 233.533 18.4056 232.398 17.4647C231.264 16.4962 229.811 16.012 228.04 16.012H219.822L220.901 0.944722H236.798V4.55588H224.387L223.889 12.2763H228.123ZM260.423 26.4304C258.459 29.1698 255.705 30.5396 252.163 30.5396C248.621 30.5396 245.868 29.1698 243.903 26.4304C241.939 23.6909 240.956 20.0382 240.956 15.4724C240.956 10.9065 241.939 7.25387 243.903 4.51437C245.868 1.77487 248.621 0.405123 252.163 0.405123C255.705 0.405123 258.459 1.77487 260.423 4.51437C262.388 7.25387 263.37 10.9065 263.37 15.4724C263.37 20.0382 262.388 23.6909 260.423 26.4304ZM246.726 23.8154C247.999 25.7801 249.811 26.7624 252.163 26.7624C254.515 26.7624 256.328 25.7801 257.601 23.8154C258.901 21.8507 259.552 19.0697 259.552 15.4724C259.552 11.875 258.901 9.09404 257.601 7.12935C256.328 5.13698 254.515 4.1408 252.163 4.1408C249.811 4.1408 247.999 5.12315 246.726 7.08784C245.453 9.05253 244.817 11.8474 244.817 15.4724C244.817 19.0697 245.453 21.8507 246.726 23.8154ZM273.264 13.2725C271.382 13.2725 269.819 12.6498 268.573 11.4046C267.328 10.1594 266.706 8.63745 266.706 6.83879C266.706 5.0678 267.328 3.5597 268.573 2.31447C269.846 1.04157 271.41 0.405123 273.264 0.405123C275.145 0.405123 276.709 1.02774 277.954 2.27296C279.199 3.51819 279.822 5.04013 279.822 6.83879C279.822 8.63745 279.199 10.1594 277.954 11.4046C276.737 12.6498 275.173 13.2725 273.264 13.2725ZM270.856 9.28774C271.493 9.92419 272.295 10.2424 273.264 10.2424C274.232 10.2424 275.021 9.91035 275.63 9.24623C276.266 8.58211 276.584 7.77963 276.584 6.83879C276.584 5.89796 276.266 5.10931 275.63 4.47286C275.021 3.80874 274.232 3.47668 273.264 3.47668C272.295 3.47668 271.493 3.80874 270.856 4.47286C270.248 5.10931 269.943 5.89796 269.943 6.83879C269.943 7.8073 270.248 8.62362 270.856 9.28774ZM268.656 25.8908L287.957 4.30683L289.991 5.42754L270.649 27.053L268.656 25.8908ZM290.489 28.6303C289.244 29.8755 287.681 30.4981 285.799 30.4981C283.917 30.4981 282.354 29.8755 281.109 28.6303C279.863 27.385 279.241 25.8631 279.241 24.0644C279.241 22.2658 279.863 20.7438 281.109 19.4986C282.354 18.2534 283.917 17.6308 285.799 17.6308C287.681 17.6308 289.244 18.2534 290.489 19.4986C291.735 20.7438 292.357 22.2658 292.357 24.0644C292.357 25.8631 291.735 27.385 290.489 28.6303ZM283.392 26.4719C284.028 27.1083 284.831 27.4265 285.799 27.4265C286.768 27.4265 287.556 27.1083 288.165 26.4719C288.801 25.8077 289.12 25.0053 289.12 24.0644C289.12 23.1236 288.801 22.3349 288.165 21.6985C287.556 21.0344 286.768 20.7023 285.799 20.7023C284.831 20.7023 284.028 21.0344 283.392 21.6985C282.783 22.3349 282.478 23.1236 282.478 24.0644C282.478 25.0053 282.783 25.8077 283.392 26.4719Z" fill="white"/>
<path d="M51.1164 86.8574C53.3301 87.2725 55.1426 88.2271 56.5539 89.7214C57.9651 91.2157 58.6708 93.1112 58.6708 95.4079C58.6708 98.2305 57.7022 100.458 55.7652 102.091C53.8282 103.723 51.4761 104.54 48.7089 104.54C46.4952 104.54 44.5305 104.042 42.8149 103.045C41.0992 102.021 39.8817 100.555 39.1622 98.6455L42.3998 96.7362C43.2576 99.4203 45.3607 100.762 48.7089 100.762C50.5076 100.762 51.9742 100.292 53.1087 99.3512C54.2433 98.4103 54.8106 97.0959 54.8106 95.4079C54.8106 93.72 54.2433 92.4056 53.1087 91.4647C51.9742 90.4962 50.5076 90.012 48.7089 90.012H47.7128L46.177 87.646L52.9012 78.5559H39.9924V74.9447H57.4255V78.3483L51.1164 86.8574ZM71.2174 86.2763C73.9569 86.2763 76.2675 87.0926 78.1491 88.7252C80.0585 90.3302 81.0132 92.5578 81.0132 95.4079C81.0132 98.2305 80.0447 100.458 78.1076 102.091C76.1706 103.723 73.8185 104.54 71.0514 104.54C68.8376 104.54 66.8591 104.014 65.1158 102.962C63.3725 101.883 62.1549 100.334 61.4631 98.3135L64.7422 96.4456C65.1296 97.8569 65.8767 98.9361 66.9836 99.6832C68.0905 100.403 69.4464 100.762 71.0514 100.762C72.8777 100.762 74.3581 100.292 75.4927 99.3512C76.6272 98.4103 77.1945 97.0959 77.1945 95.4079C77.1945 93.72 76.6272 92.4056 75.4927 91.4647C74.3581 90.4962 72.9054 90.012 71.1344 90.012H62.9159L63.9951 74.9447H79.8925V78.5559H67.4817L66.9836 86.2763H71.2174ZM90.5781 87.2725C88.6964 87.2725 87.1329 86.6498 85.8877 85.4046C84.6425 84.1594 84.0199 82.6375 84.0199 80.8388C84.0199 79.0678 84.6425 77.5597 85.8877 76.3145C87.1606 75.0416 88.724 74.4051 90.5781 74.4051C92.4597 74.4051 94.0232 75.0277 95.2684 76.273C96.5136 77.5182 97.1362 79.0401 97.1362 80.8388C97.1362 82.6375 96.5136 84.1594 95.2684 85.4046C94.0508 86.6498 92.4874 87.2725 90.5781 87.2725ZM88.1706 83.2877C88.8071 83.9242 89.6095 84.2424 90.5781 84.2424C91.5466 84.2424 92.3352 83.9104 92.944 83.2462C93.5804 82.5821 93.8987 81.7796 93.8987 80.8388C93.8987 79.898 93.5804 79.1093 92.944 78.4729C92.3352 77.8087 91.5466 77.4767 90.5781 77.4767C89.6095 77.4767 88.8071 77.8087 88.1706 78.4729C87.5618 79.1093 87.2574 79.898 87.2574 80.8388C87.2574 81.8073 87.5618 82.6236 88.1706 83.2877ZM85.9707 99.8908L105.272 78.3068L107.306 79.4275L87.9631 101.053L85.9707 99.8908ZM107.804 102.63C106.558 103.875 104.995 104.498 103.113 104.498C101.232 104.498 99.6682 103.875 98.423 102.63C97.1778 101.385 96.5551 99.8631 96.5551 98.0644C96.5551 96.2658 97.1778 94.7438 98.423 93.4986C99.6682 92.2534 101.232 91.6308 103.113 91.6308C104.995 91.6308 106.558 92.2534 107.804 93.4986C109.049 94.7438 109.672 96.2658 109.672 98.0644C109.672 99.8631 109.049 101.385 107.804 102.63ZM100.706 100.472C101.342 101.108 102.145 101.427 103.113 101.427C104.082 101.427 104.87 101.108 105.479 100.472C106.116 99.8077 106.434 99.0053 106.434 98.0644C106.434 97.1236 106.116 96.3349 105.479 95.6985C104.87 95.0344 104.082 94.7023 103.113 94.7023C102.145 94.7023 101.342 95.0344 100.706 95.6985C100.097 96.3349 99.7927 97.1236 99.7927 98.0644C99.7927 99.0053 100.097 99.8077 100.706 100.472Z" fill="white"/>
<path d="M200.285 11.377L206.569 20.2714H194L200.285 11.377Z" fill="#EB2F51"/>
<path d="M60.56 405V404.118L64.088 400.562C65.096 399.554 65.6 398.691 65.6 397.972C65.6 397.347 65.404 396.861 65.012 396.516C64.6293 396.161 64.1673 395.984 63.626 395.984C62.618 395.984 61.8853 396.446 61.428 397.37L60.602 396.88C60.91 396.273 61.33 395.816 61.862 395.508C62.394 395.191 62.982 395.032 63.626 395.032C64.41 395.032 65.096 395.298 65.684 395.83C66.2813 396.353 66.58 397.067 66.58 397.972C66.58 398.541 66.4213 399.087 66.104 399.61C65.7867 400.133 65.3387 400.683 64.76 401.262L61.96 404.048H66.79V405H60.56ZM74.3588 403.796C73.7148 404.711 72.8048 405.168 71.6288 405.168C70.4528 405.168 69.5381 404.711 68.8848 403.796C68.2408 402.872 67.9188 401.64 67.9188 400.1C67.9188 398.56 68.2408 397.333 68.8848 396.418C69.5381 395.494 70.4528 395.032 71.6288 395.032C72.8048 395.032 73.7148 395.494 74.3588 396.418C75.0121 397.333 75.3388 398.56 75.3388 400.1C75.3388 401.64 75.0121 402.872 74.3588 403.796ZM69.6128 403.138C70.0981 403.857 70.7701 404.216 71.6288 404.216C72.4874 404.216 73.1548 403.857 73.6308 403.138C74.1161 402.419 74.3588 401.407 74.3588 400.1C74.3588 398.793 74.1161 397.781 73.6308 397.062C73.1548 396.343 72.4874 395.984 71.6288 395.984C70.7701 395.984 70.0981 396.343 69.6128 397.062C69.1368 397.781 68.8988 398.793 68.8988 400.1C68.8988 401.407 69.1368 402.419 69.6128 403.138ZM76.4604 405V404.118L79.9884 400.562C80.9964 399.554 81.5004 398.691 81.5004 397.972C81.5004 397.347 81.3044 396.861 80.9124 396.516C80.5297 396.161 80.0677 395.984 79.5264 395.984C78.5184 395.984 77.7857 396.446 77.3284 397.37L76.5024 396.88C76.8104 396.273 77.2304 395.816 77.7624 395.508C78.2944 395.191 78.8824 395.032 79.5264 395.032C80.3104 395.032 80.9964 395.298 81.5844 395.83C82.1817 396.353 82.4804 397.067 82.4804 397.972C82.4804 398.541 82.3217 399.087 82.0044 399.61C81.6871 400.133 81.2391 400.683 80.6604 401.262L77.8604 404.048H82.6904V405H76.4604ZM83.8159 405V404.118L87.3439 400.562C88.3519 399.554 88.8559 398.691 88.8559 397.972C88.8559 397.347 88.6599 396.861 88.2679 396.516C87.8852 396.161 87.4232 395.984 86.8819 395.984C85.8739 395.984 85.1412 396.446 84.6839 397.37L83.8579 396.88C84.1659 396.273 84.5859 395.816 85.1179 395.508C85.6499 395.191 86.2379 395.032 86.8819 395.032C87.6659 395.032 88.3519 395.298 88.9399 395.83C89.5372 396.353 89.8359 397.067 89.8359 397.972C89.8359 398.541 89.6772 399.087 89.3599 399.61C89.0425 400.133 88.5945 400.683 88.0159 401.262L85.2159 404.048H90.0459V405H83.8159Z" fill="#818AA7"/>
<path d="M229.56 405V404.118L233.088 400.562C234.096 399.554 234.6 398.691 234.6 397.972C234.6 397.347 234.404 396.861 234.012 396.516C233.629 396.161 233.167 395.984 232.626 395.984C231.618 395.984 230.885 396.446 230.428 397.37L229.602 396.88C229.91 396.273 230.33 395.816 230.862 395.508C231.394 395.191 231.982 395.032 232.626 395.032C233.41 395.032 234.096 395.298 234.684 395.83C235.281 396.353 235.58 397.067 235.58 397.972C235.58 398.541 235.421 399.087 235.104 399.61C234.787 400.133 234.339 400.683 233.76 401.262L230.96 404.048H235.79V405H229.56ZM243.359 403.796C242.715 404.711 241.805 405.168 240.629 405.168C239.453 405.168 238.538 404.711 237.885 403.796C237.241 402.872 236.919 401.64 236.919 400.1C236.919 398.56 237.241 397.333 237.885 396.418C238.538 395.494 239.453 395.032 240.629 395.032C241.805 395.032 242.715 395.494 243.359 396.418C244.012 397.333 244.339 398.56 244.339 400.1C244.339 401.64 244.012 402.872 243.359 403.796ZM238.613 403.138C239.098 403.857 239.77 404.216 240.629 404.216C241.487 404.216 242.155 403.857 242.631 403.138C243.116 402.419 243.359 401.407 243.359 400.1C243.359 398.793 243.116 397.781 242.631 397.062C242.155 396.343 241.487 395.984 240.629 395.984C239.77 395.984 239.098 396.343 238.613 397.062C238.137 397.781 237.899 398.793 237.899 400.1C237.899 401.407 238.137 402.419 238.613 403.138ZM245.46 405V404.118L248.988 400.562C249.996 399.554 250.5 398.691 250.5 397.972C250.5 397.347 250.304 396.861 249.912 396.516C249.53 396.161 249.068 395.984 248.526 395.984C247.518 395.984 246.786 396.446 246.328 397.37L245.502 396.88C245.81 396.273 246.23 395.816 246.762 395.508C247.294 395.191 247.882 395.032 248.526 395.032C249.31 395.032 249.996 395.298 250.584 395.83C251.182 396.353 251.48 397.067 251.48 397.972C251.48 398.541 251.322 399.087 251.004 399.61C250.687 400.133 250.239 400.683 249.66 401.262L246.86 404.048H251.69V405H245.46ZM255.898 399.148C256.812 399.148 257.587 399.419 258.222 399.96C258.866 400.492 259.188 401.225 259.188 402.158C259.188 403.091 258.866 403.829 258.222 404.37C257.587 404.902 256.812 405.168 255.898 405.168C255.16 405.168 254.502 404.991 253.924 404.636C253.345 404.272 252.953 403.754 252.748 403.082L253.574 402.606C253.714 403.129 253.989 403.53 254.4 403.81C254.82 404.081 255.319 404.216 255.898 404.216C256.57 404.216 257.12 404.039 257.55 403.684C257.988 403.32 258.208 402.811 258.208 402.158C258.208 401.505 257.988 401.001 257.55 400.646C257.12 400.282 256.57 400.1 255.898 400.1H253.238L253.588 395.2H258.838V396.124H254.456L254.245 399.148H255.898Z" fill="#818AA7"/>
<defs>
<linearGradient id="paint0_linear_3993_63413" x1="149.21" y1="130" x2="149.21" y2="405" gradientUnits="userSpaceOnUse">
<stop stop-color="#0160FF"/>
<stop offset="1" stop-color="#6F84BB" stop-opacity="0"/>
</linearGradient>
<linearGradient id="paint1_linear_3993_63413" x1="319" y1="54" x2="319" y2="405" gradientUnits="userSpaceOnUse">
<stop stop-color="#EB2F51"/>
<stop offset="1"/>
</linearGradient>
</defs>
</svg>
