<svg width="1388" height="1302" viewBox="0 0 1388 1302" fill="none" xmlns="http://www.w3.org/2000/svg">
<circle opacity="0.7" cx="694" cy="650.791" r="323" transform="rotate(45 694 650.791)" stroke="url(#paint0_linear_645_3840)"/>
<circle opacity="0.5" cx="693.538" cy="651" r="460" transform="rotate(-45 693.538 651)" stroke="url(#paint1_linear_645_3840)"/>
<circle opacity="0.9" cx="694" cy="651" r="179" stroke="url(#paint2_linear_645_3840)"/>
<path d="M688.5 468L689.631 470.369L692 471.5L689.631 472.631L688.5 475L687.369 472.631L685 471.5L687.369 470.369L688.5 468Z" fill="#566582"/>
<path d="M518.5 616L519.631 618.369L522 619.5L519.631 620.631L518.5 623L517.369 620.631L515 619.5L517.369 618.369L518.5 616Z" fill="#566582"/>
<path d="M780.5 804L781.631 806.369L784 807.5L781.631 808.631L780.5 811L779.369 808.631L777 807.5L779.369 806.369L780.5 804Z" fill="#566582"/>
<path d="M728.5 823L729.631 825.369L732 826.5L729.631 827.631L728.5 830L727.369 827.631L725 826.5L727.369 825.369L728.5 823Z" fill="#566582"/>
<path d="M619.5 334L620.631 336.369L623 337.5L620.631 338.631L619.5 341L618.369 338.631L616 337.5L618.369 336.369L619.5 334Z" fill="#566582"/>
<path d="M933.5 431L934.631 433.369L937 434.5L934.631 435.631L933.5 438L932.369 435.631L930 434.5L932.369 433.369L933.5 431Z" fill="#566582"/>
<path d="M374.5 703L375.631 705.369L378 706.5L375.631 707.631L374.5 710L373.369 707.631L371 706.5L373.369 705.369L374.5 703Z" fill="#566582"/>
<g filter="url(#filter0_f_645_3840)">
<ellipse cx="694" cy="43" rx="614" ry="308" transform="rotate(180 694 43)" fill="black"/>
</g>
<defs>
<filter id="filter0_f_645_3840" x="0" y="-345" width="1388" height="776" filterUnits="userSpaceOnUse" color-interpolation-filters="sRGB">
<feFlood flood-opacity="0" result="BackgroundImageFix"/>
<feBlend mode="normal" in="SourceGraphic" in2="BackgroundImageFix" result="shape"/>
<feGaussianBlur stdDeviation="40" result="effect1_foregroundBlur_645_3840"/>
</filter>
<linearGradient id="paint0_linear_645_3840" x1="1082.98" y1="-10941.6" x2="550.543" y2="-10941.6" gradientUnits="userSpaceOnUse">
<stop stop-color="#5C6C8C" stop-opacity="0"/>
<stop offset="0.350885" stop-color="#5C6C8C"/>
</linearGradient>
<linearGradient id="paint1_linear_645_3840" x1="1247.5" y1="-15858.3" x2="489.234" y2="-15858.3" gradientUnits="userSpaceOnUse">
<stop stop-color="#5C6C8C" stop-opacity="0"/>
<stop offset="0.350885" stop-color="#5C6C8C"/>
</linearGradient>
<linearGradient id="paint2_linear_645_3840" x1="909.565" y1="-5773.28" x2="614.499" y2="-5773.28" gradientUnits="userSpaceOnUse">
<stop stop-color="#5C6C8C" stop-opacity="0"/>
<stop offset="0.350885" stop-color="#5C6C8C"/>
</linearGradient>
</defs>
</svg>
