<svg width="67" height="66" viewBox="0 0 67 66" fill="none" xmlns="http://www.w3.org/2000/svg">
<path d="M43.543 6.462L44.0111 6.21232C44.4678 5.96878 44.9869 5.86758 45.5016 5.92175C45.9589 5.9699 46.4052 6.0933 46.8224 6.28697L47.8287 6.75421L49.4651 7.51396L52.7379 9.03345L57.1182 11.0672C58.4386 11.6802 59.2834 13.0038 59.2834 14.4596V49.4374C59.2834 50.7479 58.5364 51.9438 57.3587 52.5186L52.7379 54.774L49.4651 56.3714L46.8422 57.7071C45.8508 58.212 44.6737 58.1933 43.6988 57.6571L45.0235 57.2675L45.9586 56.3714L46.1923 54.7886V51.6084V45.248V32.5271V8.35163L43.543 6.462Z" fill="#1F9CF0"/>
<path d="M7.72965 42.367C6.66416 41.3698 6.67896 39.6748 7.7617 38.6963L43.068 6.79154C44.2706 5.70478 46.192 6.55818 46.192 8.17908V20.1764L13.3984 45.0132C12.4911 45.7004 11.2207 45.6342 10.3897 44.8565L7.72965 42.367Z" fill="#0065A9"/>
<path d="M7.72965 21.6753C6.66416 22.6724 6.67896 24.3675 7.7617 25.3459L43.068 57.2507C44.2706 58.3375 46.192 57.4841 46.192 55.8632V43.8658L13.3984 19.029C12.4911 18.3418 11.2207 18.408 10.3897 19.1858L7.72965 21.6753Z" fill="#007ACC"/>
</svg>
